<svg width="32" height="32" viewBox="0 0 32 32" fill="none" xmlns="http://www.w3.org/2000/svg">
<path d="M16 5.3335C17.4145 5.3335 18.7711 5.8954 19.7712 6.89559C20.7714 7.89579 21.3333 9.25234 21.3333 10.6668C21.3333 12.0813 20.7714 13.4379 19.7712 14.4381C18.7711 15.4383 17.4145 16.0002 16 16.0002C14.5855 16.0002 13.229 15.4383 12.2288 14.4381C11.2286 13.4379 10.6667 12.0813 10.6667 10.6668C10.6667 9.25234 11.2286 7.89579 12.2288 6.89559C13.229 5.8954 14.5855 5.3335 16 5.3335ZM16 8.00016C15.2928 8.00016 14.6145 8.28111 14.1144 8.78121C13.6143 9.28131 13.3333 9.95959 13.3333 10.6668C13.3333 11.3741 13.6143 12.0524 14.1144 12.5524C14.6145 13.0525 15.2928 13.3335 16 13.3335C16.7073 13.3335 17.3855 13.0525 17.8856 12.5524C18.3857 12.0524 18.6667 11.3741 18.6667 10.6668C18.6667 9.95959 18.3857 9.28131 17.8856 8.78121C17.3855 8.28111 16.7073 8.00016 16 8.00016ZM16 17.3335C19.56 17.3335 26.6667 19.1068 26.6667 22.6668V26.6668H5.33334V22.6668C5.33334 19.1068 12.44 17.3335 16 17.3335ZM16 19.8668C12.04 19.8668 7.86668 21.8135 7.86668 22.6668V24.1335H24.1333V22.6668C24.1333 21.8135 19.96 19.8668 16 19.8668Z" fill="#25D1E7"/>
</svg>
