<svg width="32" height="32" viewBox="0 0 32 32" fill="none" xmlns="http://www.w3.org/2000/svg">
<path d="M28.5627 22.5108L29.268 23.2201L28.5613 22.5108H28.5627ZM11.7547 19.6361L12.4587 18.9268L11.7533 19.6361H11.7547ZM6.25333 5.51344L5.54933 4.80544L6.25466 5.51478L6.25333 5.51344ZM22.1707 18.5214L22.78 17.9174L21.368 16.4988L20.7627 17.1028L22.1707 18.5214ZM24.8187 17.6641L27.3667 19.0494L28.32 17.2921L25.7733 15.9081L24.8187 17.6641ZM27.856 21.8014L25.9627 23.6854L27.372 25.1028L29.2653 23.2201L27.856 21.8014ZM24.808 24.2908C22.8747 24.4721 17.8747 24.3108 12.4587 18.9268L11.048 20.3441C16.9573 26.2201 22.5827 26.5081 24.9947 26.2828L24.8067 24.2908H24.808ZM12.4587 18.9268C7.29733 13.7934 6.44133 9.47744 6.33466 7.60411L4.33733 7.71744C4.47066 10.0748 5.53066 14.8588 11.048 20.3441L12.4587 18.9268ZM14.292 10.6868L14.6747 10.3054L13.2667 8.88811L12.884 9.26811L14.2933 10.6854L14.292 10.6868ZM14.9787 5.45878L13.2987 3.21344L11.6973 4.41344L13.3773 6.65744L14.9787 5.45878ZM7.644 2.72411L5.55066 4.80411L6.96133 6.22278L9.05333 4.14278L7.644 2.72411ZM13.588 9.97744C12.8813 9.26811 12.8813 9.26811 12.8813 9.27078H12.8787L12.8747 9.27611C12.8117 9.34036 12.755 9.41045 12.7053 9.48544C12.6333 9.59211 12.5547 9.73211 12.488 9.90944C12.3256 10.3672 12.2852 10.8593 12.3707 11.3374C12.5493 12.4908 13.344 14.0148 15.3787 16.0388L16.7893 14.6201C14.884 12.7268 14.4307 11.5748 14.3467 11.0308C14.3067 10.7721 14.348 10.6441 14.36 10.6148C14.3667 10.5961 14.3693 10.5948 14.36 10.6068C14.3482 10.6253 14.3349 10.6427 14.32 10.6588L14.3067 10.6721C14.3024 10.6763 14.2979 10.6803 14.2933 10.6841L13.5867 9.97744H13.588ZM15.3787 16.0388C17.4147 18.0628 18.9467 18.8521 20.1013 19.0281C20.692 19.1188 21.168 19.0468 21.5293 18.9121C21.7314 18.8373 21.9204 18.7311 22.0893 18.5974C22.1123 18.5783 22.1345 18.5582 22.156 18.5374L22.1653 18.5294L22.1693 18.5254L22.1707 18.5228C22.1707 18.5228 22.172 18.5214 21.4667 17.8121C20.76 17.1028 20.764 17.1014 20.764 17.1014L20.7667 17.0988L20.7693 17.0961L20.7773 17.0894L20.7907 17.0761C20.8067 17.0617 20.8236 17.0484 20.8413 17.0361C20.8547 17.0268 20.8507 17.0308 20.832 17.0388C20.7987 17.0508 20.668 17.0921 20.4053 17.0521C19.8533 16.9668 18.6933 16.5134 16.7893 14.6201L15.3787 16.0388ZM13.2987 3.21211C11.9387 1.39878 9.26666 1.11078 7.644 2.72411L9.05333 4.14278C9.76266 3.43744 11.0213 3.51078 11.6973 4.41344L13.2973 3.21211H13.2987ZM6.336 7.60544C6.30933 7.14411 6.52133 6.66144 6.96133 6.22411L5.54933 4.80544C4.83333 5.51744 4.26933 6.52544 4.33733 7.71744L6.336 7.60544ZM25.9627 23.6854C25.5973 24.0508 25.2027 24.2561 24.8093 24.2921L24.9947 26.2828C25.9747 26.1908 26.776 25.6974 27.3733 25.1041L25.9627 23.6854ZM14.6747 10.3054C15.988 9.00011 16.0853 6.93744 14.98 5.46011L13.3787 6.65878C13.916 7.37744 13.836 8.32011 13.2653 8.88944L14.6747 10.3054ZM27.368 19.0508C28.4573 19.6428 28.6267 21.0374 27.8573 21.8028L29.268 23.2201C31.0547 21.4428 30.504 18.4788 28.3213 17.2934L27.368 19.0508ZM22.78 17.9188C23.292 17.4094 24.116 17.2841 24.82 17.6654L25.7747 15.9094C24.3293 15.1228 22.5373 15.3401 21.3693 16.5001L22.78 17.9188Z" fill="#25D1E7"/>
</svg>
