<?xml version="1.0" standalone="no"?>
<svg xmlns:xlink="http://www.w3.org/1999/xlink" id="wave" style="transform:rotate(180deg); transition: 0.3s" viewBox="0 0 1440 440" version="1.1" xmlns="http://www.w3.org/2000/svg"><defs><linearGradient id="sw-gradient-0" x1="0" x2="0" y1="1" y2="0"><stop stop-color="#499496" offset="0%"/><stop stop-color="rgba(11, 255, 246.735, 1)" offset="100%"/></linearGradient></defs><path style="transform:translate(0, 0px); opacity:1" fill="url(#sw-gradient-0)" d="M0,176L60,205.3C120,235,240,293,360,315.3C480,337,600,323,720,264C840,205,960,103,1080,51.3C1200,0,1320,0,1440,14.7C1560,29,1680,59,1800,124.7C1920,191,2040,293,2160,278.7C2280,264,2400,132,2520,80.7C2640,29,2760,59,2880,117.3C3000,176,3120,264,3240,308C3360,352,3480,352,3600,322.7C3720,293,3840,235,3960,190.7C4080,147,4200,117,4320,139.3C4440,161,4560,235,4680,220C4800,205,4920,103,5040,58.7C5160,15,5280,29,5400,95.3C5520,161,5640,279,5760,308C5880,337,6000,279,6120,212.7C6240,147,6360,73,6480,88C6600,103,6720,205,6840,212.7C6960,220,7080,132,7200,110C7320,88,7440,132,7560,161.3C7680,191,7800,205,7920,242C8040,279,8160,337,8280,359.3C8400,381,8520,367,8580,359.3L8640,352L8640,440L8580,440C8520,440,8400,440,8280,440C8160,440,8040,440,7920,440C7800,440,7680,440,7560,440C7440,440,7320,440,7200,440C7080,440,6960,440,6840,440C6720,440,6600,440,6480,440C6360,440,6240,440,6120,440C6000,440,5880,440,5760,440C5640,440,5520,440,5400,440C5280,440,5160,440,5040,440C4920,440,4800,440,4680,440C4560,440,4440,440,4320,440C4200,440,4080,440,3960,440C3840,440,3720,440,3600,440C3480,440,3360,440,3240,440C3120,440,3000,440,2880,440C2760,440,2640,440,2520,440C2400,440,2280,440,2160,440C2040,440,1920,440,1800,440C1680,440,1560,440,1440,440C1320,440,1200,440,1080,440C960,440,840,440,720,440C600,440,480,440,360,440C240,440,120,440,60,440L0,440Z"/></svg>